<svg width="319" height="277" viewBox="0 0 319 277" fill="none" xmlns="http://www.w3.org/2000/svg">
<path d="M123.043 246.222C190.998 246.222 246.086 191.104 246.086 123.111C246.086 55.1187 190.998 0 123.043 0C55.0882 0 0 55.1187 0 123.111C0 191.104 55.0882 246.222 123.043 246.222Z" fill="url(#paint0_linear_12_58)"/>
<mask id="mask0_12_58" style="mask-type:luminance" maskUnits="userSpaceOnUse" x="0" y="0" width="247" height="247">
<path d="M123.043 246.222C190.998 246.222 246.086 191.104 246.086 123.111C246.086 55.1187 190.998 0 123.043 0C55.0882 0 0 55.1187 0 123.111C0 191.104 55.0882 246.222 123.043 246.222Z" fill="white"/>
</mask>
<g mask="url(#mask0_12_58)">
<path opacity="0.77" d="M206.792 198.326C203.4 187.661 211.376 176.767 203.959 159.122C196.543 141.477 190.524 145.73 184.325 134.945C178.126 124.159 185.887 120.568 179.165 115.976C175.679 113.595 172.615 115.463 169.435 117.329C166.478 119.064 163.423 120.799 159.83 119.132C152.369 115.667 153.317 106.251 147.467 100.365C141.617 94.4798 107.864 101.061 109.737 86.2849C111.61 71.5093 161.37 52.1558 168.569 52.1604C175.768 52.1649 179.292 64.7587 191.039 66.9405C196.782 68.0075 203.408 65.3446 209.862 62.6738C216.61 59.8867 223.172 57.1008 228.346 58.577C238.47 61.4655 318.418 137.044 318.418 137.044L233.795 216.383C217.533 201.777 210.186 208.99 206.792 198.326ZM89.7871 209.651C81.1957 208.397 67.3432 194.749 59.8603 181.648C52.3775 168.547 64.3036 163.962 59.8603 157.254C55.4171 150.546 41.7639 140.597 39.9092 136.735C38.0544 132.873 45.658 126.269 39.9092 118.155C34.1603 110.041 25.7763 118.292 16.9093 104.291C8.04221 90.2906 4.43979 62.1517 4.43979 62.1517L67.62 -12.4319L79.4948 6.62292L96.3619 18.6456C96.3619 18.6456 120.111 31.7969 119.16 40.8022C118.209 49.8076 94.4251 52.8979 92.559 54.6636C90.6928 56.4293 92.9008 63.8137 84.2422 71.2996C75.5836 78.7854 65.0566 75.3201 57.9201 84.607C57.9201 84.607 56.839 90.2678 56.2853 96.2341C55.7316 102.2 55.7076 108.452 55.7076 108.452C57.7982 111.522 60.5895 110.013 64.2227 108.504C67.8137 107.014 72.225 105.522 77.5979 108.452C88.404 114.344 98.9344 132.02 98.9344 132.02C98.9344 132.02 123.043 133.197 125.815 140.613C128.587 148.03 111.874 158.585 110.016 161.686C108.158 164.786 111.47 169.527 107.522 175.765C103.575 182.003 99.2785 177.835 94.2223 186.639C89.3599 195.105 97.6915 209.721 90.6997 209.722C90.3942 209.72 90.0892 209.697 89.7871 209.651Z" fill="url(#paint1_linear_12_58)" fill-opacity="0.8"/>
</g>
<g filter="url(#filter0_d_12_58)">
<path d="M284.821 104.872H173.171C158.7 104.872 146.968 116.611 146.968 131.091V242.802C146.968 257.282 158.7 269.021 173.171 269.021H284.821C299.293 269.021 311.025 257.282 311.025 242.802V131.091C311.025 116.611 299.293 104.872 284.821 104.872Z" fill="url(#paint2_linear_12_58)"/>
<path d="M284.821 105.442H173.171C159.014 105.442 147.537 116.925 147.537 131.091V242.802C147.537 256.968 159.014 268.451 173.171 268.451H284.821C298.979 268.451 310.455 256.968 310.455 242.802V131.091C310.455 116.925 298.979 105.442 284.821 105.442Z" stroke="white" stroke-opacity="0.5"/>
</g>
<path d="M266.21 220.077L240.945 150.478C239.852 147.628 238.43 146.867 235.258 146.867H222.79C219.618 146.867 218.196 147.524 217.102 150.697L191.947 220.077C190.853 223.032 191.514 224.564 194.9 224.564H206.384C211.852 224.564 213.274 223.36 214.368 219.968L216.884 212.089H240.503L243.019 219.968C243.898 223.36 245.539 224.564 251.226 224.564H263.038C266.319 224.564 267.304 223.032 266.21 220.077ZM231.539 182.104L235.586 194.908H221.915L225.961 181.995C227.325 177.039 228.023 171.924 228.039 166.784H229.133C229.356 171.965 230.163 177.104 231.539 182.104Z" fill="#2B4BFF" fill-opacity="0.76"/>
<defs>
<filter id="filter0_d_12_58" x="138.968" y="96.8724" width="176.057" height="176.148" filterUnits="userSpaceOnUse" color-interpolation-filters="sRGB">
<feFlood flood-opacity="0" result="BackgroundImageFix"/>
<feColorMatrix in="SourceAlpha" type="matrix" values="0 0 0 0 0 0 0 0 0 0 0 0 0 0 0 0 0 0 127 0" result="hardAlpha"/>
<feOffset dx="-2" dy="-2"/>
<feGaussianBlur stdDeviation="3"/>
<feColorMatrix type="matrix" values="0 0 0 0 0 0 0 0 0 0 0 0 0 0 0 0 0 0 0.078 0"/>
<feBlend mode="normal" in2="BackgroundImageFix" result="effect1_dropShadow_12_58"/>
<feBlend mode="normal" in="SourceGraphic" in2="effect1_dropShadow_12_58" result="shape"/>
</filter>
<linearGradient id="paint0_linear_12_58" x1="63.244" y1="2.78205e-06" x2="195.749" y2="233.109" gradientUnits="userSpaceOnUse">
<stop stop-color="#7A64FF"/>
<stop offset="0.481" stop-color="#415EFF"/>
<stop offset="1" stop-color="#2B4BFF"/>
</linearGradient>
<linearGradient id="paint1_linear_12_58" x1="102.401" y1="-12.4319" x2="134.26" y2="220.105" gradientUnits="userSpaceOnUse">
<stop stop-color="#EAF6FF"/>
<stop offset="1" stop-color="#C6E1F5"/>
</linearGradient>
<linearGradient id="paint2_linear_12_58" x1="190.607" y1="102.082" x2="254.159" y2="268.997" gradientUnits="userSpaceOnUse">
<stop stop-color="#C8D6F5"/>
<stop offset="1" stop-color="#B6CCFC"/>
</linearGradient>
</defs>
</svg>
