<svg width="182" height="56" viewBox="0 0 182 56" fill="none" xmlns="http://www.w3.org/2000/svg">
<path fill-rule="evenodd" clip-rule="evenodd" d="M35.412 28.5498L27.6331 14.9465C26.9114 13.6845 25.7305 13.6845 25.0089 14.9465L16.4208 29.9656C14.0887 34.0441 17.0037 39.1415 21.668 39.1415H29.3556L35.4121 28.5504L41.4684 39.1415H45.7159C49.2144 39.1415 51.4004 35.3182 49.6512 32.2596L42.7827 20.2489C42.0611 18.9875 40.8808 18.9875 40.1591 20.2489L35.412 28.5498Z" fill="#2B4BFF"/>
<path d="M117.685 23.6512H120.423V26.8187H117.797V35.3062H113.759V26.8187H112.077V23.6512H113.759V23.3362C113.759 21.875 114.175 20.7112 114.998 19.8449C115.83 18.9699 117.017 18.5324 118.56 18.5324C119.054 18.5324 119.539 18.585 120.025 18.6899C120.501 18.795 120.909 18.9524 121.238 19.1624L120.233 22.1548C120.068 22.05 119.877 21.9624 119.661 21.8925C119.453 21.8312 119.236 21.7962 119.028 21.7962C118.603 21.7962 118.274 21.9273 118.04 22.1899C117.806 22.4437 117.685 22.8462 117.685 23.38V23.6512Z" fill="#2B4BFF"/>
<path d="M129.775 23.0038V26.8188L129.676 26.805C129.529 26.7841 129.405 26.7663 129.298 26.7663C129.159 26.7576 129.012 26.7488 128.856 26.7488C128.041 26.7488 127.374 26.9851 126.863 27.4576C126.351 27.9214 126.1 28.6913 126.1 29.7413V35.3063H122.061V23.205H125.909V24.6574C126.195 24.255 126.559 23.9313 126.993 23.6776C127.755 23.2313 128.683 23.0038 129.775 23.0038Z" fill="#2B4BFF"/>
<path fill-rule="evenodd" clip-rule="evenodd" d="M137.098 35.4988C135.841 35.4988 134.715 35.2275 133.744 34.6938C132.765 34.16 132.002 33.4162 131.439 32.4713C130.875 31.5263 130.598 30.4413 130.598 29.2251C130.598 28.0088 130.875 26.9238 131.439 25.9875C132.002 25.0513 132.765 24.3163 133.744 23.7912C134.723 23.2663 135.841 22.995 137.098 22.995C138.355 22.995 139.481 23.2576 140.461 23.7912C141.44 24.3163 142.211 25.0513 142.766 25.9875C143.321 26.9238 143.598 28.0088 143.598 29.2251C143.598 30.4413 143.321 31.5263 142.766 32.4713C142.211 33.4162 141.449 34.16 140.461 34.6938C139.481 35.2363 138.363 35.4988 137.098 35.4988ZM137.098 32.13C137.566 32.13 137.982 32.0163 138.337 31.7976C138.701 31.5701 138.987 31.2463 139.195 30.8C139.403 30.3537 139.516 29.8376 139.516 29.2251C139.516 28.6125 139.412 28.0963 139.195 27.6763C138.979 27.2476 138.693 26.9238 138.337 26.705C138.149 26.592 137.949 26.507 137.736 26.4513C137.536 26.3991 137.324 26.3726 137.098 26.3726C136.893 26.3726 136.697 26.3961 136.509 26.4425C136.285 26.498 136.074 26.586 135.876 26.705C135.512 26.9238 135.226 27.2476 135.009 27.6763C134.793 28.0963 134.68 28.6213 134.68 29.2251C134.68 29.8288 134.793 30.3625 135.009 30.8C135.226 31.2375 135.521 31.5701 135.876 31.7976C136.24 32.0163 136.647 32.13 137.098 32.13Z" fill="#2B4BFF"/>
<path d="M149.656 35.4988C148.677 35.4988 147.723 35.3762 146.796 35.1399C145.869 34.9038 145.123 34.6063 144.56 34.2476L145.773 31.3426C146.311 31.6838 146.943 31.955 147.663 32.1563C148.382 32.3575 149.093 32.4538 149.786 32.4538C150.462 32.4538 150.939 32.3838 151.199 32.2263C151.459 32.0774 151.589 31.8762 151.589 31.6226C151.589 31.3863 151.467 31.2112 151.216 31.0975C151.098 31.0441 150.966 30.9967 150.816 30.9559C150.645 30.9096 150.453 30.8718 150.237 30.8438L149.864 30.7889L149.857 30.7876L149.841 30.7852C149.548 30.7422 149.237 30.6964 148.911 30.6425C148.658 30.6009 148.404 30.5543 148.146 30.5015C147.917 30.4546 147.687 30.4026 147.455 30.3449C146.969 30.2225 146.519 30.0213 146.12 29.7675C145.721 29.5138 145.392 29.1551 145.149 28.7088C144.907 28.2625 144.785 27.6938 144.785 27.0113C144.785 26.2413 145.002 25.55 145.435 24.9463C145.869 24.3426 146.501 23.87 147.333 23.5201C148.165 23.17 149.188 22.995 150.393 22.995C150.782 22.995 151.175 23.0156 151.571 23.0553C151.994 23.098 152.42 23.1629 152.845 23.2488C153.346 23.3498 153.801 23.4866 154.209 23.6547C154.471 23.7633 154.713 23.885 154.934 24.0188L153.721 26.8975C153.434 26.7238 153.145 26.5773 152.856 26.4591C152.577 26.3453 152.298 26.2577 152.022 26.1974C151.459 26.075 150.921 26.005 150.41 26.005C149.734 26.005 149.257 26.0838 148.98 26.25C148.703 26.4162 148.564 26.6174 148.564 26.8537C148.564 27.09 148.685 27.2737 148.928 27.3963C148.975 27.4198 149.023 27.4422 149.075 27.4638C149.296 27.5546 149.568 27.6285 149.89 27.6851C150.211 27.74 150.552 27.7898 150.916 27.8426L151.216 27.8863C151.493 27.9269 151.776 27.9765 152.06 28.0368C152.264 28.0802 152.468 28.1288 152.672 28.1838C152.881 28.2404 153.084 28.3099 153.279 28.392C153.536 28.5001 153.78 28.6296 154.007 28.7788C154.414 29.0412 154.735 29.3913 154.977 29.8288C155.22 30.2663 155.341 30.8263 155.341 31.5175C155.341 32.2613 155.125 32.9351 154.691 33.5301C154.258 34.125 153.625 34.5975 152.776 34.9563C151.944 35.3238 150.895 35.4988 149.656 35.4988Z" fill="#2B4BFF"/>
<path d="M165.455 34.8162C165.316 34.9137 165.163 35.0006 164.996 35.0766C164.759 35.185 164.494 35.2709 164.199 35.3324C164.025 35.3723 163.85 35.4056 163.672 35.4323C163.342 35.4815 163.002 35.5073 162.647 35.5073C161.183 35.5073 160.03 35.1224 159.215 34.3525C158.392 33.5912 157.976 32.4273 157.976 30.8787V26.8187H156.303V23.6512H157.976V20.5012H162.015V23.6512H164.649V26.8187H162.015V30.835C162.015 31.2725 162.127 31.6049 162.353 31.8499C162.578 32.0949 162.873 32.2261 163.228 32.2261C163.705 32.2261 164.121 32.0949 164.459 31.8412L165.455 34.8162Z" fill="#2B4BFF"/>
<path d="M91.7713 18.7337V35.2973H95.81V18.7337H91.7713Z" fill="#2B4BFF"/>
<path fill-rule="evenodd" clip-rule="evenodd" d="M74.9925 22.3651C74.4555 21.4901 73.6925 20.825 72.7132 20.37C71.7252 19.9062 70.5555 19.67 69.1945 19.67H62.4V35.3063H66.6034V31.2199H69.1945C70.5555 31.2199 71.7252 30.9837 72.7132 30.5112C73.6925 30.0476 74.4555 29.3826 74.9925 28.5163C75.5299 27.6501 75.7987 26.6349 75.7987 25.4538C75.7987 24.2637 75.5299 23.2312 74.9925 22.3651ZM70.9021 27.1337C70.4772 27.5362 69.8187 27.7375 68.9432 27.7375H66.6034V23.1525H68.9432C69.8187 23.1525 70.4772 23.3625 70.9021 23.7562C71.3354 24.1587 71.5521 24.7275 71.5521 25.4538C71.5521 26.1712 71.3354 26.7312 70.9021 27.1337Z" fill="#2B4BFF"/>
<path fill-rule="evenodd" clip-rule="evenodd" d="M80.0537 34.6938C81.0244 35.2275 82.151 35.4988 83.4077 35.4988C84.6646 35.4988 85.7911 35.2363 86.7707 34.6938C87.7587 34.16 88.5213 33.4162 89.076 32.4713C89.6307 31.5263 89.908 30.4413 89.908 29.2251C89.908 28.0088 89.6307 26.9238 89.076 25.9875C88.5213 25.0513 87.75 24.3163 86.7707 23.7912C85.7911 23.2576 84.6646 22.995 83.4077 22.995C82.151 22.995 81.0329 23.2663 80.0537 23.7912C79.0744 24.3163 78.3119 25.0513 77.7487 25.9875C77.185 26.9238 76.9077 28.0088 76.9077 29.2251C76.9077 30.4413 77.185 31.5263 77.7487 32.4713C78.3119 33.4162 79.0744 34.16 80.0537 34.6938ZM84.6473 31.7976C84.2918 32.0163 83.8758 32.13 83.4077 32.13C82.9487 32.13 82.5411 32.0163 82.1857 31.7976C81.8306 31.5701 81.5357 31.2375 81.319 30.8C81.1891 30.5376 81.0964 30.2407 81.043 29.9147C81.0075 29.6972 80.9897 29.4668 80.9897 29.2251C80.9897 28.6213 81.1023 28.0963 81.319 27.6763C81.4404 27.4361 81.5835 27.2289 81.7498 27.0545C81.8061 26.9956 81.8653 26.9402 81.927 26.8888C82.0083 26.821 82.0947 26.7597 82.1857 26.705C82.5496 26.4863 82.9571 26.3726 83.4077 26.3726C83.6097 26.3726 83.8001 26.3938 83.9808 26.4354C84.219 26.4904 84.4399 26.5807 84.6473 26.705C84.7095 26.7435 84.7695 26.7852 84.828 26.83C84.9837 26.9504 85.1242 27.0942 85.2491 27.2611C85.2927 27.319 85.3341 27.3796 85.3739 27.4433C85.42 27.5172 85.464 27.5948 85.5051 27.6763C85.6222 27.9032 85.7065 28.1581 85.7589 28.4412C85.8038 28.6821 85.8258 28.9433 85.8258 29.2251C85.8258 29.8376 85.7133 30.3537 85.5051 30.8C85.4276 30.9659 85.3396 31.1151 85.2406 31.2484C85.1453 31.3767 85.0404 31.4908 84.9253 31.5916C84.8381 31.6677 84.7454 31.7361 84.6473 31.7976Z" fill="#2B4BFF"/>
<path d="M110.977 23.205L106.002 35.7962C105.811 36.3048 105.605 36.759 105.382 37.1591C105.149 37.578 104.899 37.9376 104.633 38.2375C104.121 38.8238 103.541 39.2438 102.917 39.4801C102.284 39.7163 101.582 39.8388 100.819 39.8388C100.213 39.8388 99.5973 39.7337 98.982 39.5324C98.3667 39.3313 97.8727 39.0687 97.4913 38.745L98.8867 35.7701C99.1293 35.9976 99.4067 36.1726 99.7273 36.295C99.9067 36.3685 100.083 36.42 100.259 36.4509C100.397 36.4755 100.534 36.4875 100.672 36.4875C101.114 36.4875 101.461 36.3826 101.712 36.1726C101.803 36.0993 101.89 36.0111 101.97 35.9081C102.073 35.7772 102.167 35.6227 102.249 35.4462L97.318 23.205H101.461L104.286 30.5988L107.129 23.205H110.977Z" fill="#2B4BFF"/>
</svg>
